<?xml version="1.0" encoding="utf-8"?>
<!-- Generator: Adobe Illustrator 24.1.0, SVG Export Plug-In . SVG Version: 6.00 Build 0)  -->
<svg version="1.1" id="Layer_1" xmlns="http://www.w3.org/2000/svg" xmlns:xlink="http://www.w3.org/1999/xlink" x="0px" y="0px"
	 viewBox="0 0 512 512" enable-background="new 0 0 512 512" xml:space="preserve">
<g id="Layer_1_1_">
	<path fill="#FFFFFF" d="M373.4,0H138.6C62.2,0,0,62.2,0,138.6v234.8C0,449.8,62.2,512,138.6,512h234.8
		c76.4,0,138.6-62.2,138.6-138.6V138.6C512,62.2,449.8,0,373.4,0z M482,373.4c0,59.9-48.7,108.6-108.6,108.6H138.6
		C78.7,482,30,433.3,30,373.4V138.6C30,78.7,78.7,30,138.6,30h234.8C433.3,30,482,78.7,482,138.6V373.4z"/>
	<path fill="#FFFFFF" d="M256,116c-77.2,0-140,62.8-140,140s62.8,140,140,140s140-62.8,140-140S333.2,116,256,116z M256,366
		c-60.6,0-110-49.3-110-110c0-60.6,49.3-110,110-110c60.6,0,110,49.3,110,110C366,316.6,316.6,366,256,366z"/>
	<path fill="#FFFFFF" d="M399.3,66.3c-22.8,0-41.4,18.6-41.4,41.4s18.6,41.4,41.4,41.4s41.4-18.6,41.4-41.4S422.2,66.3,399.3,66.3z
		 M399.3,119c-6.3,0-11.4-5.1-11.4-11.4s5.1-11.4,11.4-11.4s11.4,5.1,11.4,11.4C410.7,113.9,405.6,119,399.3,119z"/>
</g>
</svg>
